<?xml version="1.0" encoding="UTF-8" standalone="no"?>
<!DOCTYPE svg PUBLIC "-//W3C//DTD SVG 1.1//EN" "http://www.w3.org/Graphics/SVG/1.1/DTD/svg11.dtd">
<svg version="1.1" xmlns="http://www.w3.org/2000/svg" xmlns:xlink="http://www.w3.org/1999/xlink" preserveAspectRatio="xMidYMid meet" viewBox="0 0 640 640" width="640" height="640"><defs><path d="M322.63 320L322.63 290.88L41.48 151.01L41.48 194.45L270.3 303.46L41.48 399.36L41.48 443.11L322.63 320Z" id="fL2cEpCZn"></path><path d="M617.21 422.11L617.21 464.11L260.21 464.11L260.21 423.21L617.21 422.11Z" id="am8GuNfhO"></path><path d="M323.63 261.78C326.68 259.91 328.59 258.74 329.35 258.27C331.85 256.73 334.54 255.52 337.35 254.65C339.2 254.08 340.84 253.57 342.78 252.97C345.33 252.18 347.97 251.69 350.63 251.51C353.48 251.31 354.44 251.25 356.39 251.12C362.04 250.73 367.7 250.74 373.35 251.16C375.05 251.28 372.21 251.07 374.04 251.21C379.24 251.59 384.37 252.64 389.3 254.32C391.91 255.21 391.51 255.08 393.92 255.9C399.5 257.81 404.69 260.73 409.21 264.53C411.17 266.18 409.75 264.99 411.6 266.54C416.51 270.67 420.61 275.68 423.67 281.32C424.81 283.41 422.75 279.61 423.67 281.32C427.45 288.26 430.18 295.72 431.76 303.46C432.36 306.41 431.7 303.15 432.28 305.99C433.94 314.11 434.78 322.37 434.78 330.66C434.78 338.99 434.78 359.8 434.78 393.11L470.53 393.11L470.53 318.2L618.85 231.3L618.85 182.8L458.78 279.46C455.66 272.47 453.71 268.1 452.93 266.35C449.84 259.43 446.13 252.81 441.85 246.56C440.64 244.79 443.14 248.44 441.85 246.56C437.82 240.68 433.08 235.32 427.73 230.61C425.99 229.08 428.76 231.52 427 229.97C421.71 225.31 415.86 221.32 409.59 218.1C407.3 216.92 411.18 218.92 409.21 217.91C401.85 214.12 394.03 211.32 385.94 209.58C382.23 208.78 380.37 208.4 380.37 208.46C380.37 208.55 375.28 208.33 365.1 207.81C357.4 207.41 349.67 207.92 342.08 209.35C339.04 209.92 341.15 209.52 338.06 210.1C330.63 211.5 323.38 213.75 316.46 216.8C314.69 217.58 318.27 216 316.12 216.95C310.49 219.44 305.31 222.82 300.76 226.96C298.64 228.9 293.35 233.73 284.87 241.46L323.63 261.78Z" id="b2ze60JfeO"></path></defs><g><g><g><g><use xlink:href="#fL2cEpCZn" opacity="1" fill-opacity="0" stroke="#000000" stroke-width="1" stroke-opacity="1"></use></g></g><g><g><use xlink:href="#am8GuNfhO" opacity="1" fill-opacity="0" stroke="#000000" stroke-width="1" stroke-opacity="1"></use></g></g><g><g><use xlink:href="#b2ze60JfeO" opacity="1" fill-opacity="0" stroke="#000000" stroke-width="1" stroke-opacity="1"></use></g></g></g></g></svg>